# xmcd
#
# Track frame offsets:
#	150
#	21141
#	35259
#	54313
#	68991
#	96409
#	111429
#	137060
#	166603
#	180148
#	213894
#	232454
#	251465
#
# Disc length: 3506 seconds
#
# Revision: 1
# Processed by: cddbd v1.5PL3 Copyright (c) Steve Scherf et al.
# Submitted via: EasyCDDAExtractor 7.0.5.1
#
DISCID=ac0db00d
DTITLE=Victor Biglione - Um Tributo a Hendrix
DYEAR=1900
DGENRE=Blues
TTITLE0=Foxy Lady - hendrix tribute
TTITLE1=Rock Me Baby - B.B. King - Hendrix Tribute
TTITLE2=Litltle Wing - Hendrix Tribute
TTITLE3=Lazy - Deep purple
TTITLE4=Red House - Hendrix Tribute
TTITLE5=Money - Beatles
TTITLE6=Villanova Juction - Hendrix Tribute
TTITLE7=I Loved Another Woman - Fleetwood Mac
TTITLE8=Them Changes - Buddy Miles Hendrix Tribute
TTITLE9=Love That Burns - Fleetwood Mac
TTITLE10=Gangster Of Love - Steve Miler Band
TTITLE11=Taboo - Santana
TTITLE12=South American Fast Blues - Victor Biglione
EXTD=
EXTT0=
EXTT1=
EXTT2=
EXTT3=
EXTT4=
EXTT5=
EXTT6=
EXTT7=
EXTT8=
EXTT9=
EXTT10=
EXTT11=
EXTT12=
PLAYORDER=
